# xmcd
#
# Track frame offsets: 
#        150
#        18948
#        39248
#        59103
#        81085
#        107017
#        124955
#        146812
#        164052
#        185622
#        201684
#        221923
#
# Disc length: 3279 seconds
#
# Revision: 0
# Processed by: cddbd v1.5.2PL0 Copyright (c) Steve Scherf et al.
# Submitted via: ExactAudioCopy v0.95b4
#
DISCID=c00ccd0c
DTITLE=Fernando Jose Wayra - ORJO ILLAY
DYEAR=2006
DGENRE=Native American
TTITLE0=Nanninta Kuyasjanman
TTITLE1=Para Intim
TTITLE2=Anachaulau
TTITLE3=Orjo Illay
TTITLE4=Yuraj toro
TTITLE5=Akia! Allinyachuy allin
TTITLE6=Ima sumacc pacha
TTITLE7=Kullawanki
TTITLE8=Urpiuy
TTITLE9=Mallkuy
TTITLE10=Waitachallai
TTITLE11=Kasunchis winaipal
EXTD=
EXTT0=
EXTT1=
EXTT2=
EXTT3=
EXTT4=
EXTT5=
EXTT6=
EXTT7=
EXTT8=
EXTT9=
EXTT10=
EXTT11=
PLAYORDER=
